<?xml version="1.0" encoding="UTF-8"?>
<svg xmlns="http://www.w3.org/2000/svg" xmlns:xlink="http://www.w3.org/1999/xlink" width="500pt" height="381pt" viewBox="0 0 500 381" version="1.1">
<g id="surface19">
<path style=" stroke:none;fill-rule:nonzero;fill:rgb(99.998474%,0%,0%);fill-opacity:0.5;" d="M 83.332031 307.144531 L 369.046875 11.90625 L 329.363281 11.90625 L 130.953125 250 L 115.589844 250 Z M 83.332031 307.144531 "/>
<path style=" stroke:none;fill-rule:nonzero;fill:rgb(0%,0%,99.998474%);fill-opacity:0.5;" d="M 369.046875 11.90625 L 488.09375 134.921875 L 488.09375 202.382813 L 329.363281 11.90625 Z M 369.046875 11.90625 "/>
<path style=" stroke:none;fill-rule:nonzero;fill:rgb(0%,0%,99.998474%);fill-opacity:0.5;" d="M 130.953125 250 L 230.160156 369.046875 L 182.796875 369.046875 L 115.589844 250 Z M 130.953125 250 "/>
<path style=" stroke:none;fill-rule:nonzero;fill:rgb(0%,99.998474%,0%);fill-opacity:0.5;" d="M 488.09375 134.921875 L 369.046875 257.9375 L 369.046875 345.238281 L 488.09375 202.382813 Z M 488.09375 134.921875 "/>
<path style=" stroke:none;fill-rule:nonzero;fill:rgb(0%,99.998474%,0%);fill-opacity:0.5;" d="M 230.160156 369.046875 L 250 345.238281 L 250 250 L 182.796875 369.046875 Z M 230.160156 369.046875 "/>
<path style=" stroke:none;fill-rule:nonzero;fill:rgb(99.998474%,99.998474%,0%);fill-opacity:0.5;" d="M 369.046875 257.9375 L 476.574219 369.046875 L 388.890625 369.046875 L 369.046875 345.238281 Z M 369.046875 257.9375 "/>
<path style=" stroke:none;fill-rule:nonzero;fill:rgb(99.998474%,99.998474%,0%);fill-opacity:0.5;" d="M 250 345.238281 L 130.953125 202.382813 L 130.953125 130.953125 L 164.089844 97.816406 L 250 250 Z M 250 345.238281 "/>
<path style="fill:none;stroke-width:0.2;stroke-linecap:square;stroke-linejoin:miter;stroke:rgb(0%,0%,0%);stroke-opacity:1;stroke-miterlimit:3.25;" d="M 324 382.046875 L 324 263 L 443.046875 263 L 443.046875 382.046875 L 562.09375 382.046875 L 562.09375 24.90625 L 324 24.90625 L 204.953125 143.953125 L 204.953125 263 L 85.90625 263 L 85.90625 382.046875 Z M 324 382.046875 " transform="matrix(1,0,0,1,-74,-13)"/>
<path style=" stroke:none;fill-rule:evenodd;fill:rgb(0%,0%,0%);fill-opacity:1;" d="M 252.382813 369 C 252.382813 368.367188 252.128906 367.761719 251.683594 367.316406 C 251.238281 366.871094 250.632813 366.617188 250 366.617188 C 249.367188 366.617188 248.761719 366.871094 248.316406 367.316406 C 247.871094 367.761719 247.617188 368.367188 247.617188 369 C 247.617188 369.632813 247.871094 370.238281 248.316406 370.683594 C 248.761719 371.128906 249.367188 371.382813 250 371.382813 C 250.632813 371.382813 251.238281 371.128906 251.683594 370.683594 C 252.128906 370.238281 252.382813 369.632813 252.382813 369 Z M 252.382813 369 "/>
<path style=" stroke:none;fill-rule:evenodd;fill:rgb(0%,0%,0%);fill-opacity:1;" d="M 252.382813 250 C 252.382813 249.367188 252.128906 248.761719 251.683594 248.316406 C 251.238281 247.871094 250.632813 247.617188 250 247.617188 C 249.367188 247.617188 248.761719 247.871094 248.316406 248.316406 C 247.871094 248.761719 247.617188 249.367188 247.617188 250 C 247.617188 250.632813 247.871094 251.238281 248.316406 251.683594 C 248.761719 252.128906 249.367188 252.382813 250 252.382813 C 250.632813 252.382813 251.238281 252.128906 251.683594 251.683594 C 252.128906 251.238281 252.382813 250.632813 252.382813 250 Z M 252.382813 250 "/>
<path style=" stroke:none;fill-rule:evenodd;fill:rgb(0%,0%,0%);fill-opacity:1;" d="M 371.382813 250 C 371.382813 249.367188 371.128906 248.761719 370.683594 248.316406 C 370.238281 247.871094 369.632813 247.617188 369 247.617188 C 368.367188 247.617188 367.761719 247.871094 367.316406 248.316406 C 366.871094 248.761719 366.617188 249.367188 366.617188 250 C 366.617188 250.632813 366.871094 251.238281 367.316406 251.683594 C 367.761719 252.128906 368.367188 252.382813 369 252.382813 C 369.632813 252.382813 370.238281 252.128906 370.683594 251.683594 C 371.128906 251.238281 371.382813 250.632813 371.382813 250 Z M 371.382813 250 "/>
<path style=" stroke:none;fill-rule:evenodd;fill:rgb(0%,0%,0%);fill-opacity:1;" d="M 371.382813 369 C 371.382813 368.367188 371.128906 367.761719 370.683594 367.316406 C 370.238281 366.871094 369.632813 366.617188 369 366.617188 C 368.367188 366.617188 367.761719 366.871094 367.316406 367.316406 C 366.871094 367.761719 366.617188 368.367188 366.617188 369 C 366.617188 369.632813 366.871094 370.238281 367.316406 370.683594 C 367.761719 371.128906 368.367188 371.382813 369 371.382813 C 369.632813 371.382813 370.238281 371.128906 370.683594 370.683594 C 371.128906 370.238281 371.382813 369.632813 371.382813 369 Z M 371.382813 369 "/>
<path style=" stroke:none;fill-rule:evenodd;fill:rgb(0%,0%,0%);fill-opacity:1;" d="M 490.382813 369 C 490.382813 368.367188 490.128906 367.761719 489.683594 367.316406 C 489.238281 366.871094 488.632813 366.617188 488 366.617188 C 487.367188 366.617188 486.761719 366.871094 486.316406 367.316406 C 485.871094 367.761719 485.617188 368.367188 485.617188 369 C 485.617188 369.632813 485.871094 370.238281 486.316406 370.683594 C 486.761719 371.128906 487.367188 371.382813 488 371.382813 C 488.632813 371.382813 489.238281 371.128906 489.683594 370.683594 C 490.128906 370.238281 490.382813 369.632813 490.382813 369 Z M 490.382813 369 "/>
<path style=" stroke:none;fill-rule:evenodd;fill:rgb(0%,0%,0%);fill-opacity:1;" d="M 490.382813 250 C 490.382813 249.367188 490.128906 248.761719 489.683594 248.316406 C 489.238281 247.871094 488.632813 247.617188 488 247.617188 C 487.367188 247.617188 486.761719 247.871094 486.316406 248.316406 C 485.871094 248.761719 485.617188 249.367188 485.617188 250 C 485.617188 250.632813 485.871094 251.238281 486.316406 251.683594 C 486.761719 252.128906 487.367188 252.382813 488 252.382813 C 488.632813 252.382813 489.238281 252.128906 489.683594 251.683594 C 490.128906 251.238281 490.382813 250.632813 490.382813 250 Z M 490.382813 250 "/>
<path style=" stroke:none;fill-rule:evenodd;fill:rgb(0%,0%,0%);fill-opacity:1;" d="M 490.382813 131 C 490.382813 130.367188 490.128906 129.761719 489.683594 129.316406 C 489.238281 128.871094 488.632813 128.617188 488 128.617188 C 487.367188 128.617188 486.761719 128.871094 486.316406 129.316406 C 485.871094 129.761719 485.617188 130.367188 485.617188 131 C 485.617188 131.632813 485.871094 132.238281 486.316406 132.683594 C 486.761719 133.128906 487.367188 133.382813 488 133.382813 C 488.632813 133.382813 489.238281 133.128906 489.683594 132.683594 C 490.128906 132.238281 490.382813 131.632813 490.382813 131 Z M 490.382813 131 "/>
<path style=" stroke:none;fill-rule:evenodd;fill:rgb(0%,0%,0%);fill-opacity:1;" d="M 490.382813 12 C 490.382813 11.367188 490.128906 10.761719 489.683594 10.316406 C 489.238281 9.871094 488.632813 9.617188 488 9.617188 C 487.367188 9.617188 486.761719 9.871094 486.316406 10.316406 C 485.871094 10.761719 485.617188 11.367188 485.617188 12 C 485.617188 12.632813 485.871094 13.238281 486.316406 13.683594 C 486.761719 14.128906 487.367188 14.382813 488 14.382813 C 488.632813 14.382813 489.238281 14.128906 489.683594 13.683594 C 490.128906 13.238281 490.382813 12.632813 490.382813 12 Z M 490.382813 12 "/>
<path style=" stroke:none;fill-rule:evenodd;fill:rgb(0%,0%,0%);fill-opacity:1;" d="M 371.382813 12 C 371.382813 11.367188 371.128906 10.761719 370.683594 10.316406 C 370.238281 9.871094 369.632813 9.617188 369 9.617188 C 368.367188 9.617188 367.761719 9.871094 367.316406 10.316406 C 366.871094 10.761719 366.617188 11.367188 366.617188 12 C 366.617188 12.632813 366.871094 13.238281 367.316406 13.683594 C 367.761719 14.128906 368.367188 14.382813 369 14.382813 C 369.632813 14.382813 370.238281 14.128906 370.683594 13.683594 C 371.128906 13.238281 371.382813 12.632813 371.382813 12 Z M 371.382813 12 "/>
<path style=" stroke:none;fill-rule:evenodd;fill:rgb(0%,0%,0%);fill-opacity:1;" d="M 252.382813 12 C 252.382813 11.367188 252.128906 10.761719 251.683594 10.316406 C 251.238281 9.871094 250.632813 9.617188 250 9.617188 C 249.367188 9.617188 248.761719 9.871094 248.316406 10.316406 C 247.871094 10.761719 247.617188 11.367188 247.617188 12 C 247.617188 12.632813 247.871094 13.238281 248.316406 13.683594 C 248.761719 14.128906 249.367188 14.382813 250 14.382813 C 250.632813 14.382813 251.238281 14.128906 251.683594 13.683594 C 252.128906 13.238281 252.382813 12.632813 252.382813 12 Z M 252.382813 12 "/>
<path style=" stroke:none;fill-rule:evenodd;fill:rgb(0%,0%,0%);fill-opacity:1;" d="M 133.382813 131 C 133.382813 130.367188 133.128906 129.761719 132.683594 129.316406 C 132.238281 128.871094 131.632813 128.617188 131 128.617188 C 130.367188 128.617188 129.761719 128.871094 129.316406 129.316406 C 128.871094 129.761719 128.617188 130.367188 128.617188 131 C 128.617188 131.632813 128.871094 132.238281 129.316406 132.683594 C 129.761719 133.128906 130.367188 133.382813 131 133.382813 C 131.632813 133.382813 132.238281 133.128906 132.683594 132.683594 C 133.128906 132.238281 133.382813 131.632813 133.382813 131 Z M 133.382813 131 "/>
<path style=" stroke:none;fill-rule:evenodd;fill:rgb(0%,0%,0%);fill-opacity:1;" d="M 133.382813 250 C 133.382813 249.367188 133.128906 248.761719 132.683594 248.316406 C 132.238281 247.871094 131.632813 247.617188 131 247.617188 C 130.367188 247.617188 129.761719 247.871094 129.316406 248.316406 C 128.871094 248.761719 128.617188 249.367188 128.617188 250 C 128.617188 250.632813 128.871094 251.238281 129.316406 251.683594 C 129.761719 252.128906 130.367188 252.382813 131 252.382813 C 131.632813 252.382813 132.238281 252.128906 132.683594 251.683594 C 133.128906 251.238281 133.382813 250.632813 133.382813 250 Z M 133.382813 250 "/>
<path style=" stroke:none;fill-rule:evenodd;fill:rgb(0%,0%,0%);fill-opacity:1;" d="M 14.382813 250 C 14.382813 249.367188 14.128906 248.761719 13.683594 248.316406 C 13.238281 247.871094 12.632813 247.617188 12 247.617188 C 11.367188 247.617188 10.761719 247.871094 10.316406 248.316406 C 9.871094 248.761719 9.617188 249.367188 9.617188 250 C 9.617188 250.632813 9.871094 251.238281 10.316406 251.683594 C 10.761719 252.128906 11.367188 252.382813 12 252.382813 C 12.632813 252.382813 13.238281 252.128906 13.683594 251.683594 C 14.128906 251.238281 14.382813 250.632813 14.382813 250 Z M 14.382813 250 "/>
<path style=" stroke:none;fill-rule:evenodd;fill:rgb(0%,0%,0%);fill-opacity:1;" d="M 14.382813 369 C 14.382813 368.367188 14.128906 367.761719 13.683594 367.316406 C 13.238281 366.871094 12.632813 366.617188 12 366.617188 C 11.367188 366.617188 10.761719 366.871094 10.316406 367.316406 C 9.871094 367.761719 9.617188 368.367188 9.617188 369 C 9.617188 369.632813 9.871094 370.238281 10.316406 370.683594 C 10.761719 371.128906 11.367188 371.382813 12 371.382813 C 12.632813 371.382813 13.238281 371.128906 13.683594 370.683594 C 14.128906 370.238281 14.382813 369.632813 14.382813 369 Z M 14.382813 369 "/>
<path style=" stroke:none;fill-rule:evenodd;fill:rgb(0%,0%,0%);fill-opacity:1;" d="M 133.382813 369 C 133.382813 368.367188 133.128906 367.761719 132.683594 367.316406 C 132.238281 366.871094 131.632813 366.617188 131 366.617188 C 130.367188 366.617188 129.761719 366.871094 129.316406 367.316406 C 128.871094 367.761719 128.617188 368.367188 128.617188 369 C 128.617188 369.632813 128.871094 370.238281 129.316406 370.683594 C 129.761719 371.128906 130.367188 371.382813 131 371.382813 C 131.632813 371.382813 132.238281 371.128906 132.683594 370.683594 C 133.128906 370.238281 133.382813 369.632813 133.382813 369 Z M 133.382813 369 "/>
<path style="fill:none;stroke-width:0.2;stroke-linecap:square;stroke-linejoin:miter;stroke:rgb(0%,0%,0%);stroke-opacity:1;stroke-miterlimit:3.25;" d="M 159.382813 320 C 159.382813 319.367188 159.128906 318.761719 158.683594 318.316406 C 158.238281 317.871094 157.632813 317.617188 157 317.617188 C 156.367188 317.617188 155.761719 317.871094 155.316406 318.316406 C 154.871094 318.761719 154.617188 319.367188 154.617188 320 C 154.617188 320.632813 154.871094 321.238281 155.316406 321.683594 C 155.761719 322.128906 156.367188 322.382813 157 322.382813 C 157.632813 322.382813 158.238281 322.128906 158.683594 321.683594 C 159.128906 321.238281 159.382813 320.632813 159.382813 320 Z M 159.382813 320 " transform="matrix(1,0,0,1,-74,-13)"/>
</g>
</svg>
